HIERARCHY
ROOT Hips
{
	OFFSET -3.958830 18.904000 13.208200
	CHANNELS 6 Xposition Yposition Zposition Zrotation Yrotation Xrotation 
	JOINT LHipJoint
	{
		OFFSET 0.000000 0.000000 0.000000
		CHANNELS 3 Zrotation Yrotation Xrotation
		JOINT LeftUpLeg
		{
			OFFSET 1.800000 -1.400000 0.085000
			CHANNELS 3 Zrotation Yrotation Xrotation
			JOINT LeftLeg
			{
				OFFSET 2.215000 -6.000000 0.000000
				CHANNELS 3 Zrotation Yrotation Xrotation
				JOINT LeftFoot
				{
					OFFSET 2.500000 -6.900000 0.000000
					CHANNELS 3 Zrotation Yrotation Xrotation
					JOINT LeftToeBase
					{
						OFFSET 0.200000 -0.500000 1.950000
						CHANNELS 3 Zrotation Yrotation Xrotation
						End Site
						{
							OFFSET 0.000000 0.000000 0.000000
						}
					}
				}
			}
		}
	}
	JOINT RHipJoint
	{
		OFFSET 0.000000 0.000000 0.000000
		CHANNELS 3 Zrotation Yrotation Xrotation
		JOINT RightUpLeg
		{
			OFFSET -1.800000 -1.400000 0.085000
			CHANNELS 3 Zrotation Yrotation Xrotation
			JOINT RightLeg
			{
				OFFSET -2.215000 -6.000000 0.000000
				CHANNELS 3 Zrotation Yrotation Xrotation
				JOINT RightFoot
				{
					OFFSET -2.500000 -6.900000 0.000000
					CHANNELS 3 Zrotation Yrotation Xrotation
					JOINT RightToeBase
					{
						OFFSET -0.200000 -0.500000 1.950000
						CHANNELS 3 Zrotation Yrotation Xrotation
						End Site
						{
							OFFSET 0.000000 0.000000 0.000000
						}
					}
				}
			}
		}
	}
	JOINT LowerBack
	{
		OFFSET 0.000000 0.000000 0.000000
		CHANNELS 3 Zrotation Yrotation Xrotation
		JOINT Spine
		{
			OFFSET -0.087000 1.940000 -0.288900
			CHANNELS 3 Zrotation Yrotation Xrotation
			JOINT Spine1
			{
				OFFSET 0.000000 1.950000 0.060000
				CHANNELS 3 Zrotation Yrotation Xrotation
				JOINT Neck
				{
					OFFSET 0.000000 0.000000 0.000000
					CHANNELS 3 Zrotation Yrotation Xrotation
					JOINT Neck1
					{
						OFFSET 0.000000 1.600000 0.340000
						CHANNELS 3 Zrotation Yrotation Xrotation
						JOINT Head
						{
							OFFSET 0.000000 1.667000 -0.240000
							CHANNELS 3 Zrotation Yrotation Xrotation
							End Site
							{
								OFFSET 0.000000 0.000000 0.000000
							}
						}
					}
				}
				JOINT LeftShoulder
				{
					OFFSET 0.000000 0.000000 0.000000
					CHANNELS 3 Zrotation Yrotation Xrotation
					JOINT LeftArm
					{
						OFFSET 2.700000 1.550000 -0.730000
						CHANNELS 3 Zrotation Yrotation Xrotation
						JOINT LeftForeArm
						{
							OFFSET 5.450000 0.000000 0.000000
							CHANNELS 3 Zrotation Yrotation Xrotation
							JOINT LeftHand
							{
								OFFSET 3.450000 0.000000 0.000000
								CHANNELS 3 Zrotation Yrotation Xrotation
								JOINT LeftHandIndex1
								{
									OFFSET 0.750000 0.000000 0.000000
									CHANNELS 3 Zrotation Yrotation Xrotation
									End Site
									{
										OFFSET 0.000000 0.000000 0.000000
									}
								}
							}
						}
					}
				}
				JOINT RightShoulder
				{
					OFFSET 0.000000 0.000000 0.000000
					CHANNELS 3 Zrotation Yrotation Xrotation
					JOINT RightArm
					{
						OFFSET -2.700000 1.550000 -0.730000
						CHANNELS 3 Zrotation Yrotation Xrotation
						JOINT RightForeArm
						{
							OFFSET -5.450000 0.000000 0.000000
							CHANNELS 3 Zrotation Yrotation Xrotation
							JOINT RightHand
							{
								OFFSET -3.450000 0.000000 0.000000
								CHANNELS 3 Zrotation Yrotation Xrotation
								JOINT RightHandIndex1
								{
									OFFSET -0.750000 0.000000 0.000000
									CHANNELS 3 Zrotation Yrotation Xrotation
									End Site
									{
										OFFSET 0.000000 0.000000 0.000000
									}
								}
							}
						}
					}
				}
			}
		}
	}
}
MOTION
Frames: 14
Frame Time: 0.016667
-1.035610 17.185050 0.139940 -1.913235 0.587243 -6.899206 -15.262777 11.898151 3.388996 -9.803015 -2.922451 -1.709103 -13.512809 16.386442 45.764454 1.003036 10.919500 1.260079 0.009700 -0.496250 0.121590 18.519606 -8.635711 4.834242 -6.882551 12.183314 -40.426556 30.640148 -21.834104 44.890080 -1.788347 -10.062884 0.933528 -0.273700 0.772030 0.816050 -3.821581 -1.849715 -8.960229 22.894158 -7.650203 36.592293 -8.051883 -3.363330 -3.268194 5.893305 7.825362 -6.592663 13.586277 -3.382326 27.474391 -18.402110 10.009460 -9.831520 -16.227759 1.617114 -3.573342 6.186824 10.254325 -3.043258 122.631546 -37.244072 -61.619316 -4.430374 2.921189 0.698020 0.557150 0.029160 0.290070 4.085074 -6.990285 6.657015 45.172477 1.738560 -4.625306 -146.150624 63.374276 -141.561451 1.869169 -2.003281 -0.346770 0.164280 0.261720 -0.141030 
-0.982190 16.943780 0.079740 -1.226440 0.767625 -10.025213 -15.371125 12.025688 3.585293 -12.019970 -1.306330 3.552208 -15.045818 16.897315 43.159712 1.046558 10.994218 1.296694 -0.114300 -0.687300 0.101740 18.425455 -8.483112 4.704974 -5.796827 12.477892 -37.623550 32.307681 -21.700136 43.673886 -1.748405 -9.952486 0.979738 -0.357660 0.819520 0.760320 -3.542547 -2.380731 -9.015501 23.048819 -8.843594 42.109292 -8.406995 -3.839709 -4.277545 6.504462 7.884644 -7.005278 13.989721 -2.526224 27.505056 -19.331010 11.378730 -9.504380 -14.253952 2.052414 -4.422927 8.325733 9.477619 -3.496425 127.844672 -31.649394 -59.976858 -4.424845 3.011624 0.739690 0.554310 -0.034890 0.228820 0.655478 -6.559915 7.944628 46.365540 5.222097 -2.130289 -143.961765 52.518096 -128.589135 1.909591 -1.868564 -0.444140 0.216460 0.347010 -0.186820 
-0.954440 16.708230 0.044280 -0.214650 1.163287 -12.760961 -15.558636 12.309238 3.799223 -14.310523 0.127736 8.003849 -14.538619 16.405304 41.312145 1.002259 10.924234 1.347441 -0.139400 -0.778390 0.106250 18.262383 -8.171688 4.523437 -4.933398 12.550896 -34.462859 33.716856 -21.682869 42.907782 -1.754733 -9.962257 0.982363 -0.384490 0.856130 0.745090 -3.056538 -3.503292 -9.050981 21.684653 -9.241300 48.882753 -7.840564 -3.528212 -8.497748 6.956701 7.639249 -6.037148 13.474810 -1.629690 26.137888 -18.708700 11.766870 -10.248350 -12.862218 5.438285 -6.893039 13.168372 6.305835 -1.990734 131.568598 -30.381356 -60.899106 -4.475917 3.078633 0.793240 0.546010 -0.087270 0.213180 -1.735130 -8.712896 8.113248 45.495535 6.156955 -0.121129 -144.128853 45.045277 -118.468697 1.878164 -1.893385 -0.511330 0.230520 0.387070 -0.224150 
-0.955680 16.507980 0.009690 1.361648 2.658824 -15.395854 -15.719776 12.527882 4.013436 -16.099916 1.162330 11.661179 -13.784877 16.122666 40.747473 1.082606 10.960349 1.353452 -0.188270 -0.837180 0.058270 18.121510 -7.926953 4.318031 -5.213435 12.097461 -31.582859 34.322785 -22.092658 43.432355 -1.803559 -10.155468 0.934377 -0.433970 0.856600 0.739380 -2.643558 -4.468268 -9.083885 20.219580 -8.888835 54.804839 -8.239349 -2.591413 -12.051280 7.301550 7.748856 -5.849774 13.303751 -3.094209 25.320801 -17.875420 10.174070 -10.556470 -11.252198 7.283707 -8.809310 16.995904 0.250749 -0.791196 130.222528 -31.626547 -59.136799 -4.521936 3.024927 0.799980 0.520250 -0.094980 0.200970 -4.211525 -9.702996 9.458249 46.639336 1.992921 -1.247277 -145.623958 38.513280 -111.607804 1.877161 -1.954700 -0.507670 0.218730 0.417170 -0.211330 
-0.982950 16.357820 -0.030010 3.153973 4.103791 -16.215080 -15.869766 12.666373 4.120965 -17.126032 1.202626 12.310975 -14.324539 16.812326 41.774059 1.202275 11.197877 1.262946 -0.155130 -0.815080 0.106880 18.006128 -7.623440 4.279556 -5.613118 12.317110 -31.498177 33.907990 -22.514446 45.346156 -1.872324 -10.443220 0.840295 -0.443200 0.771050 0.725430 -2.269514 -5.286005 -9.173891 17.219076 -7.235655 57.777975 -6.867741 -1.131808 -14.191773 7.040090 8.182974 -6.108385 13.696873 -5.032112 25.564902 -18.213730 8.973370 -10.013000 -10.630718 6.810406 -9.234345 21.121945 -1.381234 -0.298304 129.448561 -33.316295 -59.550109 -4.475050 3.022731 0.798280 0.470480 -0.079070 0.180650 -4.227359 -8.772860 9.913973 46.016968 -1.442578 -3.705835 -144.464649 34.944229 -103.289546 1.897350 -1.992793 -0.470530 0.155000 0.379580 -0.225990 
-0.985730 16.269580 -0.072790 3.804964 5.509633 -16.534396 -15.852559 12.567873 4.152170 -17.493105 0.479912 11.941996 -14.605204 17.521788 44.048039 1.306128 11.541178 1.154229 -0.131000 -0.776050 0.101360 18.040551 -7.574741 4.325185 -5.648855 12.335683 -32.982692 32.695960 -22.798490 47.325031 -1.936608 -10.644995 0.787416 -0.435510 0.736410 0.714440 -2.339292 -5.245092 -9.208942 17.225159 -7.585009 58.452361 -6.556609 -1.308464 -12.798206 6.257880 7.369583 -6.364398 11.822057 -5.771582 25.790878 -17.275320 7.058190 -11.789090 -10.415492 4.946290 -8.175117 21.017794 -0.854151 -1.185893 127.232827 -32.885984 -57.296802 -4.381279 2.981878 0.820770 0.426550 -0.049550 0.189320 -2.771853 -7.277431 9.570651 45.221344 -5.193027 -7.032424 -144.431964 32.967090 -100.661539 1.877576 -1.987015 -0.450620 0.162130 0.364420 -0.214240 
-0.984850 16.243160 -0.094530 4.334057 5.942625 -17.272543 -15.751964 12.323166 4.184640 -18.123516 0.370714 11.957354 -14.523238 17.951231 45.592936 1.415566 11.689706 1.091767 -0.091080 -0.697700 0.109580 18.143485 -7.731644 4.366014 -5.662019 12.541193 -33.692793 31.036028 -22.888797 49.540485 -2.013644 -10.821479 0.733420 -0.425610 0.662880 0.706860 -2.627239 -4.593274 -9.230454 17.958649 -8.048234 57.885864 -6.894707 -2.164548 -9.135744 5.196316 6.731580 -7.107834 10.527272 -6.298207 27.560884 -16.396730 5.508150 -13.578680 -10.480433 1.497030 -6.099020 20.272448 2.910203 -2.682829 126.952054 -31.879464 -57.716247 -4.234593 3.005854 0.829280 0.360030 0.015720 0.192030 -0.638577 -4.387970 9.259490 45.960323 -5.612097 -9.754687 -142.867890 31.726803 -97.682798 1.887997 -1.931938 -0.390450 0.153940 0.331620 -0.190390 
-0.978350 16.283320 -0.093260 4.233108 6.472779 -17.571374 -15.625621 12.185679 4.169956 -17.942070 0.222777 11.823064 -13.636948 17.383633 45.749267 1.457404 11.486927 1.168169 -0.082280 -0.652530 0.076250 18.243280 -8.014919 4.342077 -5.066482 12.246814 -33.445763 29.166804 -22.577471 50.604874 -2.017497 -10.775564 0.775458 -0.435140 0.646220 0.673280 -2.955410 -3.936132 -9.209135 19.221021 -9.131958 56.281737 -7.315665 -3.310390 -6.295639 4.096180 5.480795 -8.048754 8.227195 -6.035082 30.000645 -14.752430 4.431970 -12.960330 -10.425945 -1.167670 -3.788912 17.381669 7.312237 -3.665509 129.616571 -31.864586 -63.371994 -4.083996 3.031970 0.817230 0.316420 0.047210 0.225890 1.351459 -1.577501 9.093736 46.202929 -4.837892 -11.237171 -141.752867 31.541181 -97.133242 1.921649 -1.868156 -0.353910 0.169600 0.291750 -0.141720 
-0.973600 16.373590 -0.092250 3.956553 6.745438 -16.871128 -15.516695 12.148568 4.100127 -17.597178 0.161865 11.083843 -11.467073 15.737704 45.016425 1.318916 10.986535 1.329259 -0.081710 -0.635830 0.040680 18.319855 -8.268292 4.332979 -4.736476 11.814297 -33.639977 27.721060 -21.950597 50.476910 -1.954556 -10.554052 0.881082 -0.425220 0.671310 0.625550 -3.227145 -3.465958 -9.159131 19.922897 -9.813480 53.594214 -7.105938 -4.276366 -3.888834 3.290465 3.927698 -8.653346 5.447840 -4.893589 32.270494 -13.529220 3.937460 -12.353900 -10.991709 -2.880103 -1.757050 13.393984 11.701868 -4.223375 133.086830 -32.589738 -71.715777 -4.003979 2.999479 0.832990 0.305150 0.043060 0.259670 3.545085 0.705354 8.518297 44.630437 -2.755840 -11.609765 -139.924486 32.583768 -96.283169 1.914005 -1.764695 -0.376740 0.230000 0.277800 -0.122140 
-0.973250 16.519020 -0.073510 2.757513 6.747911 -15.315152 -15.430713 12.277657 3.944089 -15.573066 -0.121923 9.798178 -10.770769 14.921214 43.833319 1.347379 10.506060 1.494372 -0.071100 -0.547440 -0.023930 18.364666 -8.482653 4.329796 -3.193795 11.528710 -33.834458 25.921944 -20.530429 49.031410 -1.807353 -9.991749 1.087952 -0.420080 0.672440 0.595740 -3.422086 -3.263024 -9.073974 21.266303 -10.756144 50.400061 -6.697476 -4.743836 -3.238385 2.683725 1.664701 -9.270889 1.419567 -3.933692 33.659749 -12.976600 3.496400 -9.374330 -10.881051 -2.457771 0.036958 6.981007 14.379736 -4.024481 136.856125 -34.549372 -82.262370 -3.953792 3.021037 0.729860 0.302460 0.056170 0.320590 4.563239 1.939209 8.005177 42.732386 -1.496518 -11.472137 -137.548632 35.106842 -95.919257 1.986017 -1.741271 -0.300890 0.216300 0.208050 -0.031040 
-0.989440 16.700160 -0.061150 2.119314 6.786553 -13.911637 -15.363467 12.371388 3.857219 -14.035426 -0.515703 8.545904 -10.984781 14.756893 43.130576 1.296688 10.356374 1.523344 -0.139130 -0.622960 -0.109520 18.396139 -8.707406 4.248830 -2.036206 10.901882 -33.723015 23.443496 -18.940680 47.752161 -1.602797 -9.412209 1.244994 -0.461990 0.708330 0.591810 -3.571329 -3.057916 -8.978510 21.507022 -11.171083 47.983144 -6.429240 -5.063182 -3.095132 2.124386 0.106996 -9.789662 -1.316387 -2.861190 33.938662 -11.643930 3.041410 -6.403830 -10.359103 -1.443768 1.697717 0.555378 15.507241 -3.307545 141.591426 -38.322126 -98.156657 -4.023676 3.052933 0.695340 0.322250 0.003240 0.299440 5.117458 1.957691 7.333310 42.531310 -0.499746 -11.206332 -135.459683 38.157128 -96.344307 1.996847 -1.694506 -0.299820 0.191090 0.268960 -0.017050 
-1.037640 16.883750 -0.046590 1.809004 6.927823 -12.529500 -15.327979 12.542715 3.708949 -11.912132 -1.126977 6.397750 -10.147237 14.392231 43.641191 1.221262 10.249562 1.536852 -0.158470 -0.655610 -0.137880 18.387314 -8.884760 4.216692 -1.612050 10.445935 -33.778939 21.699496 -17.610383 46.375074 -1.437270 -8.894061 1.393518 -0.475000 0.726330 0.586490 -3.617085 -3.010873 -8.897735 20.255374 -10.068588 44.965484 -4.951822 -4.241553 -1.941297 1.516241 -0.676871 -10.368908 -2.994516 -2.622985 35.033415 -10.358230 1.914900 -3.777380 -9.683218 -0.849041 3.356381 -6.120077 13.948789 -2.288287 145.630269 -44.916282 -116.238263 -4.084950 3.095961 0.678750 0.334300 -0.027130 0.290720 5.844303 1.970474 6.655499 42.917381 -0.527023 -11.753939 -131.960786 41.410976 -95.159444 1.997368 -1.622064 -0.299290 0.185310 0.295190 -0.014810 
-1.069370 17.094050 -0.022790 1.810566 7.265494 -10.410553 -15.336820 12.706393 3.614358 -9.802764 -1.937650 3.351510 -10.777212 14.684680 44.019086 1.145937 10.264323 1.493561 -0.161640 -0.651680 -0.143470 18.334046 -8.977161 4.200973 -2.527388 9.841979 -34.496004 20.801028 -16.766033 44.927078 -1.324454 -8.474382 1.504773 -0.468550 0.718530 0.589760 -3.536685 -3.114857 -8.897862 18.069035 -8.265848 40.379363 -3.052000 -3.082880 0.145408 1.643396 -0.244198 -11.084571 -2.876044 -3.224750 38.089089 -10.509090 0.837030 -2.477660 -11.287174 -2.339071 5.038569 -12.862299 13.219042 -2.486613 150.053512 -50.061577 -132.357774 -4.104341 3.118798 0.697060 0.335000 -0.009330 0.276180 7.476468 3.243192 6.380546 42.482440 -1.406955 -13.524197 -124.582450 44.258117 -88.210545 1.970439 -1.410206 -0.296830 0.209550 0.322280 -0.020880 
-1.123290 17.315060 -0.003400 1.641805 6.972697 -8.630056 -15.290017 12.803015 3.462509 -6.972361 -2.627547 -0.185244 -10.707739 14.956999 45.037786 1.053233 10.361816 1.430976 -0.216680 -0.726420 -0.196230 18.332332 -9.133339 4.227684 -3.518733 9.689220 -35.046776 19.719227 -16.025731 44.222855 -1.211401 -8.184002 1.598337 -0.495580 0.764810 0.577340 -3.598562 -2.938433 -8.869560 16.573310 -7.301426 37.633295 -2.108090 -2.365708 -0.069336 1.287634 -0.683131 -11.205505 -3.760244 -2.513142 39.718817 -8.620320 -0.528490 -1.401080 -10.434558 -0.805525 5.799375 -21.304188 14.058548 -3.919451 157.312156 -62.399337 -155.644822 -4.070149 3.252955 0.724080 0.349150 -0.039910 0.251260 7.412396 2.273070 5.572824 44.155431 -0.244760 -13.647114 -114.691177 48.663556 -78.998168 1.898336 -1.008775 -0.331840 0.253840 0.393340 -0.030080 
